<svg width="20" height="20" viewBox="0 0 20 20" fill="none" xmlns="http://www.w3.org/2000/svg">
<path d="M16.7124 20C17.5583 20 18.3096 19.6505 18.9661 18.9516C19.6606 18.2124 20.0078 17.3152 20.0078 16.2601C20.0078 15.205 19.6606 14.3078 18.9661 13.5686L8.07599 1.27016C7.52044 0.665325 6.87966 0.27554 6.15365 0.100809C5.42764 -0.0739224 4.69216 -0.0268793 3.94721 0.241938C3.20226 0.510755 2.51413 0.974465 1.88281 1.63307C1.68079 1.86156 1.49455 2.11358 1.3241 2.38912C1.15364 2.66465 1.01476 2.95363 0.907433 3.25605C0.80011 3.55847 0.718039 3.87769 0.661221 4.21371C0.604403 4.54973 0.575994 4.88576 0.575994 5.22178C0.601246 6.64651 1.05579 7.83602 1.93963 8.79033L10.1783 18.1048C10.2919 18.2393 10.4308 18.3098 10.5949 18.3165C10.7591 18.3233 10.9011 18.2661 11.0211 18.1452C11.141 18.0242 11.2042 17.873 11.2105 17.6915C11.2168 17.5101 11.1631 17.3522 11.0495 17.2177L2.81084 7.90323C2.14165 7.17742 1.80074 6.27688 1.78811 5.20162C1.77549 4.12635 2.09746 3.24597 2.75402 2.56049C3.15806 2.11694 3.6063 1.78092 4.09872 1.55242C4.59115 1.32393 5.12145 1.25 5.68963 1.33065C6.25781 1.41129 6.76286 1.68683 7.20478 2.15726L18.0949 14.4556C18.5621 14.953 18.7957 15.5511 18.7957 16.25C18.7957 16.9489 18.5621 17.547 18.0949 18.0444C17.8803 18.2729 17.6467 18.4442 17.3942 18.5585C17.1417 18.6727 16.8765 18.7164 16.5987 18.6895C16.0432 18.6626 15.5255 18.3871 15.0457 17.8629L6.39039 8.06452C6.32726 7.99731 6.26728 7.92675 6.21046 7.85283C6.15365 7.7789 6.09367 7.69153 6.03054 7.59073C5.96741 7.48992 5.9169 7.3824 5.87902 7.26815C5.84115 7.1539 5.81589 7.03965 5.80327 6.92541C5.79064 6.81116 5.80958 6.69355 5.86008 6.57258C5.91059 6.45162 5.98635 6.33737 6.08736 6.22984C6.32726 5.96102 6.56084 5.84006 6.78812 5.86694C7.02801 5.89382 7.29948 6.06183 7.60251 6.37097L14.1177 13.75C14.1934 13.8306 14.2818 13.8878 14.3828 13.9214C14.4838 13.955 14.588 13.9583 14.6953 13.9315C14.8026 13.9046 14.8942 13.8508 14.9699 13.7702C15.0962 13.6492 15.1593 13.5013 15.1593 13.3266C15.1593 13.1519 15.1025 12.9973 14.9889 12.8629L8.47372 5.46371C7.95604 4.92608 7.43205 4.63038 6.90175 4.57662C6.29569 4.52285 5.74014 4.76479 5.23508 5.30242C4.75529 5.79973 4.5438 6.38441 4.60062 7.05645C4.65743 7.7285 4.96362 8.36022 5.51918 8.95162L14.1745 18.7702C14.8815 19.5229 15.6707 19.9261 16.5419 19.9798C16.5672 19.9798 16.5956 19.9832 16.6271 19.9899C16.6587 19.9966 16.6871 20 16.7124 20Z" fill="#393246"/>
</svg>
